# xmcd CD database file
#
# Track frame offsets:
#	150
#	1640
#	28773
#	49379
#	65929
#	86331
#	110765
#	127189
#	152891
#	180058
#	204658
#	221982
#	244231
#	257329
#	278302
#
# Disc length: 4092 seconds
#
# Revision: 0
# Processed by: cddbd v1.5.2PL0 Copyright (c) Steve Scherf et al.
# Submitted via: CDex 1.51
#
DISCID=d20ffa0f
DTITLE=KEB' MO' - Sessions At West 54th - Recorded Live In New York
DYEAR=2000
DGENRE=Blues
TTITLE0=Program Introduction
TTITLE1=I'm On Your Side
TTITLE2=That's Not Love
TTITLE3=You Can Love Yourself
TTITLE4=Every Morning
TTITLE5=Am I Wrong
TTITLE6=Tell Everybody I Know
TTITLE7=City Boy
TTITLE8=Angelina
TTITLE9=She Just Want To Dance
TTITLE10=Just Like You
TTITLE11=Dirty Low Down And Bad
TTITLE12=Anybody Seen My Girl
TTITLE13=More Than One Way Home
TTITLE14=Dangerous Mood
EXTD=YEAR: 2000
EXTT0=
EXTT1=
EXTT2=
EXTT3=
EXTT4=
EXTT5=
EXTT6=
EXTT7=
EXTT8=
EXTT9=
EXTT10=
EXTT11=
EXTT12=
EXTT13=
EXTT14=
PLAYORDER=
